<?xml version="1.0" standalone="no"?><!DOCTYPE svg PUBLIC "-//W3C//DTD SVG 1.1//EN" "http://www.w3.org/Graphics/SVG/1.1/DTD/svg11.dtd"><svg height="1024" node-id="1" sillyvg="true" template-height="1024" template-width="1762" version="1.1" viewBox="0 0 1762 1024" width="1762" xmlns="http://www.w3.org/2000/svg" xmlns:xlink="http://www.w3.org/1999/xlink"><defs node-id="40"></defs><path d="M 12.10 837.60 L 261.90 269.90 L 422.00 8.00 L 1547.90 8.00 L 1639.90 211.70 L 1353.40 858.90 L 12.10 837.60 Z" fill="#ffffff" fill-rule="nonzero" node-id="42" stroke="none" target-height="850.9" target-width="1627.8" target-x="12.1" target-y="8"></path><path d="M 1542.80 15.90 L 1631.20 211.70 L 1348.20 850.90 L 24.20 829.80 L 269.00 273.60 L 426.50 15.90 L 1542.80 15.90 Z M 1553.10 0.00 L 417.60 0.00 L 254.90 266.20 L 0.00 845.40 L 1358.50 867.00 L 1648.60 211.60 L 1553.10 0.00 Z" fill="#000000" fill-rule="nonzero" node-id="44" stroke="none" target-height="867" target-width="1648.6" target-x="0" target-y="0"></path><path d="M 1441.60 641.70 L 1036.50 641.70 L 1036.50 847.60 L 1349.40 851.10 L 1441.60 641.70 Z" fill="#315bf4" fill-rule="nonzero" node-id="46" stroke="none" target-height="209.39996" target-width="405.09998" target-x="1036.5" target-y="641.7"></path><path d="M 1117.30 383.40 L 1237.90 276.50" fill="none" node-id="48" stroke="#d2e9fe" stroke-linecap="butt" stroke-width="12" target-height="106.899994" target-width="120.599976" target-x="1117.3" target-y="276.5"></path><path d="M 1256.10 279.90 L 1349.40 364.10" fill="none" node-id="50" stroke="#d2e9fe" stroke-linecap="butt" stroke-width="12" target-height="84.20001" target-width="93.30005" target-x="1256.1" target-y="279.9"></path><path d="M 1366.50 355.00 L 1480.30 248.00" fill="none" node-id="52" stroke="#d2e9fe" stroke-linecap="butt" stroke-width="12" target-height="107" target-width="113.80005" target-x="1366.5" target-y="248"></path><path d="M 1103.60 413.00 L 1106.80 412.80 L 1112.50 411.20 L 1115.10 409.90 L 1119.70 406.30 L 1123.30 401.70 L 1124.60 399.10 L 1126.20 393.40 L 1126.40 390.30 L 1125.60 384.20 L 1124.60 381.40 L 1121.60 376.30 L 1117.60 372.30 L 1115.10 370.60 L 1109.70 368.30 L 1106.80 367.70 L 1103.60 367.50 L 1097.50 368.30 L 1094.80 369.30 L 1089.70 372.30 L 1085.70 376.30 L 1082.70 381.40 L 1081.10 387.10 L 1080.90 390.30 L 1081.10 393.40 L 1081.70 396.40 L 1082.70 399.10 L 1084.00 401.70 L 1087.60 406.40 L 1092.20 409.90 L 1094.80 411.20 L 1100.50 412.80 L 1103.60 413.00 Z" fill="#315bf4" fill-rule="nonzero" node-id="54" stroke="none" target-height="45.5" target-width="45.5" target-x="1080.9" target-y="367.5"></path><path d="M 1241.30 301.50 L 1246.20 301.20 L 1250.70 300.30 L 1255.00 298.70 L 1259.10 296.70 L 1262.90 294.20 L 1266.30 291.20 L 1269.20 287.80 L 1271.80 284.10 L 1273.80 280.00 L 1275.30 275.60 L 1276.30 271.10 L 1276.60 266.20 L 1276.30 261.40 L 1275.30 256.80 L 1273.80 252.50 L 1271.80 248.40 L 1269.20 244.70 L 1266.30 241.30 L 1262.90 238.30 L 1259.10 235.80 L 1255.00 233.70 L 1250.70 232.20 L 1246.20 231.30 L 1241.30 231.00 L 1236.50 231.30 L 1231.90 232.20 L 1227.60 233.70 L 1223.50 235.80 L 1219.80 238.30 L 1216.40 241.30 L 1213.40 244.70 L 1210.90 248.40 L 1208.80 252.50 L 1207.30 256.80 L 1206.40 261.40 L 1206.00 266.20 L 1206.40 271.10 L 1207.30 275.60 L 1208.80 280.00 L 1210.90 284.10 L 1213.40 287.80 L 1216.40 291.20 L 1219.80 294.20 L 1223.50 296.70 L 1227.60 298.70 L 1231.90 300.30 L 1236.50 301.20 L 1241.30 301.50 Z" fill="#315bf4" fill-rule="nonzero" node-id="56" stroke="none" target-height="70.5" target-width="70.599976" target-x="1206" target-y="231"></path><path d="M 1357.40 400.50 L 1361.00 400.30 L 1364.30 399.60 L 1367.60 398.40 L 1370.60 396.90 L 1373.40 395.10 L 1375.90 392.80 L 1378.10 390.30 L 1380.00 387.60 L 1381.50 384.50 L 1382.60 381.30 L 1383.30 377.90 L 1383.50 374.30 L 1383.30 370.70 L 1382.60 367.40 L 1381.50 364.10 L 1380.00 361.10 L 1378.10 358.30 L 1375.90 355.80 L 1373.40 353.60 L 1370.60 351.70 L 1367.60 350.20 L 1364.30 349.10 L 1361.00 348.40 L 1357.40 348.20 L 1353.80 348.40 L 1350.40 349.10 L 1347.20 350.20 L 1344.10 351.70 L 1341.40 353.60 L 1338.90 355.80 L 1336.70 358.30 L 1334.80 361.10 L 1333.30 364.10 L 1332.10 367.40 L 1331.40 370.70 L 1331.20 374.30 L 1331.40 377.90 L 1332.10 381.30 L 1333.30 384.50 L 1334.80 387.60 L 1336.70 390.30 L 1338.90 392.80 L 1341.40 395.10 L 1344.10 396.90 L 1347.20 398.40 L 1350.40 399.60 L 1353.80 400.30 L 1357.40 400.50 Z" fill="#315bf4" fill-rule="nonzero" node-id="58" stroke="none" target-height="52.299988" target-width="52.30005" target-x="1331.2" target-y="348.2"></path><path d="M 1489.40 259.40 L 1493.70 259.10 L 1497.80 258.30 L 1501.80 256.90 L 1505.50 255.10 L 1508.80 252.80 L 1511.90 250.10 L 1514.60 247.00 L 1516.80 243.70 L 1518.70 240.00 L 1520.10 236.10 L 1520.90 231.90 L 1521.20 227.60 L 1520.90 223.20 L 1520.10 219.10 L 1518.70 215.20 L 1516.80 211.50 L 1514.60 208.10 L 1511.90 205.00 L 1508.80 202.30 L 1505.50 200.10 L 1501.80 198.20 L 1497.80 196.80 L 1493.70 196.00 L 1489.40 195.70 L 1485.00 196.00 L 1480.90 196.80 L 1477.00 198.20 L 1473.30 200.10 L 1469.90 202.30 L 1466.80 205.00 L 1464.10 208.10 L 1461.90 211.50 L 1460.00 215.20 L 1458.60 219.10 L 1457.80 223.20 L 1457.50 227.60 L 1457.80 231.90 L 1458.60 236.10 L 1460.00 240.00 L 1461.90 243.70 L 1464.10 247.00 L 1466.80 250.10 L 1469.90 252.80 L 1473.30 255.10 L 1477.00 256.90 L 1480.90 258.30 L 1485.00 259.10 L 1489.40 259.40 Z" fill="#315bf4" fill-rule="nonzero" node-id="60" stroke="none" target-height="63.699997" target-width="63.69995" target-x="1457.5" target-y="195.7"></path><path d="M 31.90 1016.00 L 28.60 1015.80 L 25.50 1015.20 L 22.60 1014.20 L 19.80 1012.80 L 15.00 1009.00 L 11.20 1004.20 L 9.80 1001.40 L 8.80 998.50 L 8.20 995.40 L 8.00 992.10 L 8.00 243.50 L 8.20 240.20 L 8.80 237.10 L 9.80 234.20 L 11.20 231.40 L 15.00 226.60 L 19.80 222.90 L 22.60 221.50 L 25.50 220.40 L 28.60 219.80 L 31.90 219.60 L 1125.30 219.60 L 1128.50 219.80 L 1131.60 220.40 L 1134.60 221.50 L 1137.30 222.90 L 1142.20 226.60 L 1145.90 231.40 L 1147.30 234.20 L 1148.30 237.10 L 1148.90 240.20 L 1149.20 243.50 L 1149.20 992.10 L 1148.90 995.40 L 1148.30 998.50 L 1147.30 1001.40 L 1144.20 1006.70 L 1139.90 1011.10 L 1134.60 1014.20 L 1131.60 1015.20 L 1128.50 1015.80 L 1125.30 1016.00 L 31.90 1016.00 Z" fill="#ffffff" fill-rule="nonzero" node-id="62" stroke="none" target-height="796.4" target-width="1141.2" target-x="8" target-y="219.6"></path><path d="M 1125.30 227.60 L 1128.20 227.80 L 1130.80 228.60 L 1133.30 229.70 L 1135.50 231.30 L 1137.40 233.20 L 1139.00 235.50 L 1140.20 237.90 L 1140.90 240.60 L 1141.20 243.50 L 1141.20 992.10 L 1140.90 995.00 L 1140.20 997.70 L 1139.00 1000.20 L 1137.40 1002.40 L 1135.50 1004.30 L 1133.30 1005.90 L 1130.80 1007.10 L 1128.20 1007.80 L 1125.30 1008.10 L 31.90 1008.10 L 29.00 1007.80 L 26.30 1007.10 L 23.80 1005.90 L 21.60 1004.30 L 19.70 1002.40 L 18.10 1000.20 L 16.90 997.70 L 16.20 995.00 L 15.90 992.10 L 15.90 243.50 L 16.20 240.60 L 16.90 237.90 L 18.10 235.50 L 19.70 233.20 L 21.60 231.30 L 23.80 229.70 L 26.30 228.60 L 29.00 227.80 L 31.90 227.60 L 1125.30 227.60 Z M 1125.30 211.60 L 31.90 211.60 L 27.50 211.90 L 23.40 212.80 L 19.50 214.10 L 15.80 216.00 L 12.40 218.30 L 9.40 221.00 L 6.70 224.10 L 4.40 227.40 L 2.50 231.10 L 1.10 235.00 L 0.30 239.10 L 0.00 243.50 L 0.00 992.10 L 0.30 996.50 L 1.10 1000.60 L 2.50 1004.50 L 4.40 1008.20 L 6.70 1011.60 L 9.40 1014.60 L 12.40 1017.30 L 15.80 1019.60 L 19.50 1021.50 L 23.40 1022.90 L 27.50 1023.70 L 31.90 1024.00 L 1125.30 1024.00 L 1129.60 1023.70 L 1133.70 1022.90 L 1137.60 1021.50 L 1141.30 1019.60 L 1144.70 1017.30 L 1147.80 1014.60 L 1150.50 1011.60 L 1152.70 1008.20 L 1154.60 1004.50 L 1156.00 1000.60 L 1156.80 996.50 L 1157.10 992.10 L 1157.10 243.50 L 1156.80 239.10 L 1156.00 235.00 L 1154.60 231.10 L 1152.70 227.40 L 1150.50 224.10 L 1147.80 221.00 L 1144.70 218.30 L 1141.30 216.00 L 1137.60 214.10 L 1133.70 212.80 L 1129.60 211.90 L 1125.30 211.60 Z" fill="#000000" fill-rule="nonzero" node-id="64" stroke="none" target-height="812.4" target-width="1157.1" target-x="0" target-y="211.6"></path><path d="M 457.10 96.50 L 460.50 96.20 L 463.70 95.60 L 466.80 94.50 L 469.70 93.10 L 472.30 91.30 L 474.70 89.20 L 476.80 86.80 L 478.50 84.20 L 480.00 81.30 L 481.00 78.30 L 481.70 75.10 L 481.90 71.70 L 481.70 68.30 L 481.00 65.10 L 480.00 62.00 L 478.50 59.20 L 476.80 56.50 L 474.70 54.20 L 472.30 52.10 L 469.70 50.30 L 466.80 48.80 L 463.70 47.80 L 460.50 47.10 L 457.10 46.90 L 453.70 47.10 L 450.50 47.80 L 447.50 48.80 L 444.60 50.30 L 442.00 52.10 L 439.60 54.20 L 437.50 56.50 L 435.70 59.20 L 434.30 62.00 L 433.20 65.10 L 432.60 68.30 L 432.40 71.70 L 432.60 75.10 L 433.20 78.30 L 434.30 81.30 L 435.70 84.20 L 437.50 86.80 L 439.60 89.20 L 442.00 91.30 L 444.60 93.10 L 447.50 94.50 L 450.50 95.60 L 453.70 96.20 L 457.10 96.50 Z" fill="#ff3f08" fill-rule="nonzero" node-id="66" stroke="none" target-height="49.6" target-width="49.5" target-x="432.4" target-y="46.9"></path><path d="M 542.10 96.50 L 545.50 96.20 L 548.70 95.60 L 551.70 94.50 L 554.60 93.10 L 557.20 91.30 L 559.60 89.20 L 561.70 86.80 L 563.50 84.20 L 564.90 81.30 L 566.00 78.30 L 566.60 75.10 L 566.90 71.70 L 566.60 68.30 L 566.00 65.10 L 564.90 62.00 L 563.50 59.20 L 561.70 56.50 L 559.60 54.20 L 557.20 52.10 L 554.60 50.30 L 551.70 48.80 L 548.70 47.80 L 545.50 47.10 L 542.10 46.90 L 538.70 47.10 L 535.50 47.80 L 532.40 48.80 L 529.60 50.30 L 526.90 52.10 L 524.60 54.20 L 522.50 56.50 L 520.70 59.20 L 519.30 62.00 L 518.20 65.10 L 517.50 68.30 L 517.30 71.70 L 517.50 75.10 L 518.20 78.30 L 519.30 81.30 L 520.70 84.20 L 522.50 86.80 L 524.60 89.20 L 526.90 91.30 L 529.60 93.10 L 532.40 94.50 L 535.50 95.60 L 538.70 96.20 L 542.10 96.50 Z" fill="#315bf4" fill-rule="nonzero" node-id="68" stroke="none" target-height="49.6" target-width="49.600037" target-x="517.3" target-y="46.9"></path><path d="M 622.60 96.50 L 626.00 96.20 L 629.20 95.60 L 632.30 94.50 L 635.10 93.10 L 637.80 91.30 L 640.10 89.20 L 642.20 86.80 L 644.00 84.20 L 645.40 81.30 L 646.50 78.30 L 647.20 75.10 L 647.40 71.70 L 647.20 68.30 L 646.50 65.10 L 645.40 62.00 L 644.00 59.20 L 642.20 56.50 L 640.10 54.20 L 637.80 52.10 L 635.10 50.30 L 632.30 48.80 L 629.20 47.80 L 626.00 47.10 L 622.60 46.90 L 619.20 47.10 L 616.00 47.80 L 613.00 48.80 L 610.10 50.30 L 607.50 52.10 L 605.10 54.20 L 603.00 56.50 L 601.20 59.20 L 599.80 62.00 L 598.70 65.10 L 598.10 68.30 L 597.80 71.70 L 598.10 75.10 L 598.70 78.30 L 599.80 81.30 L 601.20 84.20 L 603.00 86.80 L 605.10 89.20 L 607.50 91.30 L 610.10 93.10 L 613.00 94.50 L 616.00 95.60 L 619.20 96.20 L 622.60 96.50 Z" fill="#315bf4" fill-rule="nonzero" node-id="70" stroke="none" target-height="49.6" target-width="49.600037" target-x="597.8" target-y="46.9"></path><path d="M 232.10 374.30 L 548.40 374.30 L 550.90 374.60 L 553.20 375.20 L 555.30 376.20 L 557.20 377.60 L 560.20 381.10 L 561.20 383.20 L 561.80 385.50 L 562.10 388.00 L 562.10 914.80 L 561.80 917.30 L 561.20 919.50 L 558.80 923.60 L 555.30 926.60 L 553.20 927.60 L 550.90 928.20 L 548.40 928.40 L 232.10 928.40 L 229.60 928.20 L 227.30 927.60 L 225.20 926.60 L 223.30 925.20 L 220.30 921.70 L 219.30 919.50 L 218.70 917.30 L 218.50 914.80 L 218.50 388.00 L 218.70 385.50 L 219.30 383.20 L 221.70 379.20 L 225.20 376.20 L 227.30 375.20 L 229.60 374.60 L 232.10 374.30 Z" fill="#d2e9fe" fill-rule="nonzero" node-id="72" stroke="none" target-height="554.10004" target-width="343.59998" target-x="218.5" target-y="374.3"></path><path d="M 457.40 869.30 L 147.90 869.30 L 145.40 869.00 L 143.10 868.40 L 141.00 867.40 L 139.10 866.00 L 136.10 862.50 L 135.10 860.40 L 134.50 858.10 L 134.30 855.60 L 134.30 318.60 L 134.50 316.10 L 135.10 313.80 L 137.50 309.80 L 141.00 306.80 L 143.10 305.80 L 145.40 305.20 L 147.90 304.90 L 457.40 304.90 L 459.90 305.20 L 462.10 305.80 L 464.30 306.80 L 466.20 308.20 L 469.20 311.70 L 470.20 313.80 L 470.80 316.10 L 471.00 318.60 L 471.00 855.60 L 470.80 858.10 L 470.20 860.40 L 469.20 862.50 L 466.20 866.00 L 462.10 868.40 L 459.90 869.00 L 457.40 869.30 Z" fill="#315bf4" fill-rule="nonzero" node-id="74" stroke="none" target-height="564.4" target-width="336.7" target-x="134.3" target-y="304.9"></path><path d="M 301.50 438.00 L 306.40 437.70 L 310.90 436.80 L 315.20 435.30 L 319.30 433.20 L 323.10 430.70 L 326.50 427.70 L 329.40 424.30 L 332.00 420.60 L 334.00 416.50 L 335.50 412.20 L 336.40 407.60 L 336.80 402.80 L 336.40 397.90 L 335.50 393.40 L 334.00 389.00 L 332.00 385.00 L 329.40 381.20 L 326.50 377.80 L 323.10 374.80 L 319.30 372.30 L 315.20 370.30 L 310.90 368.80 L 306.40 367.80 L 301.50 367.50 L 296.70 367.80 L 292.10 368.80 L 287.80 370.30 L 283.70 372.30 L 280.00 374.80 L 276.60 377.80 L 273.60 381.20 L 271.10 385.00 L 269.00 389.00 L 267.50 393.40 L 266.60 397.90 L 266.20 402.80 L 266.60 407.60 L 267.50 412.20 L 269.00 416.50 L 271.10 420.60 L 273.60 424.30 L 276.60 427.70 L 280.00 430.70 L 283.70 433.20 L 287.80 435.30 L 292.10 436.80 L 296.70 437.70 L 301.50 438.00 Z" fill="#ffffff" fill-rule="nonzero" node-id="76" stroke="none" target-height="70.5" target-width="70.599976" target-x="266.2" target-y="367.5"></path><path d="M 259.40 529.10 L 258.30 516.80 L 258.20 511.00 L 258.90 497.20 L 260.00 489.80 L 261.00 484.90 L 264.20 475.40 L 266.30 470.90 L 268.90 466.70 L 271.90 462.80 L 274.40 460.20 L 277.30 457.80 L 280.50 455.80 L 284.00 453.90 L 287.70 452.50 L 291.80 451.50 L 296.40 450.80 L 301.50 450.60 L 306.70 450.80 L 311.30 451.50 L 315.40 452.50 L 319.00 453.90 L 322.60 455.80 L 325.80 457.80 L 328.70 460.20 L 331.30 462.80 L 334.40 466.70 L 337.00 470.90 L 339.20 475.40 L 342.50 484.90 L 343.60 489.80 L 344.80 497.20 L 345.70 511.00 L 345.70 516.80 L 344.70 529.10 L 259.40 529.10 Z" fill="#ffffff" fill-rule="nonzero" node-id="78" stroke="none" target-height="78.49997" target-width="87.5" target-x="258.2" target-y="450.6"></path><path d="M 207.60 587.10 L 399.40 587.30 L 402.50 588.40 L 404.50 589.90 L 406.00 591.90 L 406.70 593.40 L 407.30 596.80 L 406.70 600.10 L 406.00 601.60 L 404.50 603.60 L 402.50 605.10 L 399.40 606.30 L 205.90 606.30 L 202.80 605.10 L 200.80 603.60 L 199.30 601.60 L 198.60 600.10 L 198.00 596.80 L 198.60 593.40 L 199.30 591.90 L 200.80 589.90 L 202.80 588.40 L 204.30 587.70 L 207.60 587.10 Z" fill="#ffffff" fill-rule="nonzero" node-id="80" stroke="none" target-height="19.200012" target-width="209.29999" target-x="198" target-y="587.1"></path><path d="M 237.20 644.00 L 369.80 644.10 L 372.90 645.30 L 374.90 646.80 L 376.40 648.80 L 377.10 650.30 L 377.70 653.70 L 377.10 657.00 L 376.40 658.50 L 374.90 660.50 L 372.90 662.00 L 369.80 663.20 L 235.50 663.20 L 232.40 662.00 L 230.40 660.50 L 228.90 658.50 L 228.20 657.00 L 227.60 653.70 L 228.20 650.30 L 228.90 648.80 L 230.40 646.80 L 232.40 645.30 L 233.90 644.60 L 237.20 644.00 Z" fill="#ffffff" fill-rule="nonzero" node-id="82" stroke="none" target-height="19.200012" target-width="150.1" target-x="227.6" target-y="644"></path><path d="M 264.50 700.90 L 345.90 701.00 L 349.00 702.20 L 351.00 703.70 L 352.50 705.70 L 353.20 707.20 L 353.80 710.50 L 353.20 713.90 L 352.50 715.40 L 351.00 717.40 L 349.00 718.90 L 347.60 719.60 L 344.20 720.20 L 262.80 720.10 L 259.70 718.90 L 257.70 717.40 L 256.20 715.40 L 255.50 713.90 L 254.90 710.50 L 255.50 707.20 L 256.20 705.70 L 257.70 703.70 L 259.70 702.20 L 261.20 701.50 L 264.50 700.90 Z" fill="#ffffff" fill-rule="nonzero" node-id="84" stroke="none" target-height="19.299988" target-width="98.899994" target-x="254.9" target-y="700.9"></path><path d="M 221.30 766.90 L 409.70 767.00 L 412.80 768.20 L 414.70 769.70 L 416.20 771.70 L 417.00 773.20 L 417.60 776.50 L 417.00 779.90 L 416.20 781.40 L 414.70 783.40 L 412.80 784.90 L 409.70 786.00 L 219.50 786.00 L 216.40 784.90 L 214.50 783.40 L 213.00 781.40 L 212.20 779.90 L 211.60 776.50 L 212.20 773.20 L 213.00 771.70 L 214.50 769.70 L 216.40 768.20 L 217.90 767.50 L 221.30 766.90 Z" fill="#ffffff" fill-rule="nonzero" node-id="86" stroke="none" target-height="19.099976" target-width="206" target-x="211.6" target-y="766.9"></path><path d="M 884.10 590.50 L 892.30 590.20 L 900.40 589.40 L 908.20 588.10 L 915.80 586.20 L 923.30 583.90 L 930.60 581.10 L 937.60 577.90 L 944.40 574.20 L 950.90 570.10 L 957.10 565.60 L 962.90 560.80 L 968.50 555.50 L 973.80 549.90 L 978.60 544.10 L 983.10 537.90 L 987.20 531.30 L 990.90 524.60 L 994.10 517.60 L 996.90 510.30 L 999.30 502.80 L 1001.10 495.20 L 1002.40 487.30 L 1003.20 479.30 L 1003.50 471.00 L 1003.20 462.80 L 1002.40 454.70 L 1001.10 446.90 L 999.30 439.30 L 996.90 431.80 L 994.10 424.50 L 990.90 417.50 L 987.20 410.70 L 983.10 404.20 L 978.60 398.00 L 973.80 392.10 L 968.50 386.60 L 962.90 381.30 L 957.10 376.50 L 950.90 372.00 L 944.40 367.90 L 937.60 364.20 L 930.60 361.00 L 923.30 358.20 L 915.80 355.80 L 908.20 354.00 L 900.40 352.70 L 892.30 351.90 L 884.10 351.60 L 875.80 351.90 L 867.80 352.70 L 859.90 354.00 L 852.30 355.80 L 844.80 358.20 L 837.50 361.00 L 830.50 364.20 L 823.80 367.90 L 817.20 372.00 L 811.00 376.50 L 805.20 381.30 L 799.60 386.60 L 794.30 392.10 L 789.50 398.00 L 785.00 404.20 L 780.90 410.70 L 777.20 417.50 L 774.00 424.50 L 771.20 431.80 L 768.90 439.30 L 767.00 446.90 L 765.70 454.70 L 764.90 462.80 L 764.60 471.00 L 764.90 479.30 L 765.70 487.30 L 767.00 495.20 L 768.90 502.80 L 771.20 510.30 L 774.00 517.60 L 777.20 524.60 L 780.90 531.30 L 785.00 537.90 L 789.50 544.10 L 794.30 549.90 L 799.60 555.50 L 805.20 560.80 L 811.00 565.60 L 817.20 570.10 L 823.80 574.20 L 830.50 577.90 L 837.50 581.10 L 844.80 583.90 L 852.30 586.20 L 859.90 588.10 L 867.80 589.40 L 875.80 590.20 L 884.10 590.50 Z" fill="#ff3f08" fill-rule="nonzero" node-id="88" stroke="none" target-height="238.9" target-width="238.90002" target-x="764.6" target-y="351.6"></path><path d="M 845.40 530.20 L 845.40 397.10 L 950.00 467.60 L 845.40 530.20 Z" fill="#ffffff" fill-rule="nonzero" node-id="90" stroke="none" target-height="133.1" target-width="104.599976" target-x="845.4" target-y="397.1"></path><path d="M 715.70 688.40 L 1045.60 688.40 L 1048.10 688.60 L 1050.40 689.20 L 1052.50 690.20 L 1054.40 691.60 L 1056.00 693.20 L 1058.40 697.20 L 1059.00 699.50 L 1059.30 702.00 L 1059.30 769.10 L 1059.00 771.60 L 1058.40 773.90 L 1057.40 776.00 L 1054.40 779.60 L 1050.40 781.90 L 1048.10 782.60 L 1045.60 782.80 L 715.70 782.80 L 713.20 782.60 L 710.90 781.90 L 708.80 780.90 L 705.20 777.90 L 702.90 773.90 L 702.20 771.60 L 702.00 769.10 L 702.00 702.00 L 702.20 699.50 L 702.90 697.20 L 705.20 693.20 L 708.80 690.20 L 710.90 689.20 L 713.20 688.60 L 715.70 688.40 Z" fill="#315bf4" fill-rule="nonzero" node-id="92" stroke="none" target-height="94.39996" target-width="357.30005" target-x="702" target-y="688.4"></path><path d="M 1048.50 867.00 L 712.80 867.00 L 709.00 866.30 L 707.40 865.50 L 704.60 863.10 L 702.70 859.90 L 702.00 856.20 L 702.70 852.40 L 704.60 849.20 L 707.40 846.80 L 709.00 846.00 L 712.80 845.40 L 1048.50 845.40 L 1052.20 846.00 L 1055.40 847.90 L 1057.80 850.70 L 1058.60 852.40 L 1059.30 856.20 L 1058.60 859.90 L 1057.80 861.60 L 1055.40 864.40 L 1052.20 866.30 L 1048.50 867.00 Z" fill="#315bf4" fill-rule="nonzero" node-id="94" stroke="none" target-height="21.599976" target-width="357.30005" target-x="702" target-y="845.4"></path><path d="M 811.20 943.20 L 813.90 943.00 L 816.40 942.30 L 818.70 941.20 L 820.80 939.70 L 822.50 938.00 L 824.00 935.90 L 825.10 933.60 L 825.80 931.10 L 826.00 928.40 L 825.80 925.70 L 825.10 923.30 L 824.00 921.00 L 822.50 918.90 L 820.80 917.10 L 818.70 915.70 L 816.40 914.60 L 813.90 913.90 L 811.20 913.60 L 808.50 913.90 L 806.10 914.60 L 803.80 915.70 L 801.70 917.10 L 799.90 918.90 L 798.50 921.00 L 797.40 923.30 L 796.70 925.70 L 796.40 928.40 L 796.70 931.10 L 797.40 933.60 L 798.50 935.90 L 799.90 938.00 L 801.70 939.70 L 803.80 941.20 L 806.10 942.30 L 808.50 943.00 L 811.20 943.20 Z" fill="#ff3f08" fill-rule="nonzero" node-id="96" stroke="none" target-height="29.600037" target-width="29.599976" target-x="796.4" target-y="913.6"></path><path d="M 889.70 943.20 L 892.40 943.00 L 894.90 942.30 L 897.20 941.20 L 899.30 939.70 L 901.00 938.00 L 902.50 935.90 L 903.60 933.60 L 904.30 931.10 L 904.50 928.40 L 904.30 925.70 L 903.60 923.30 L 902.50 921.00 L 901.00 918.90 L 899.30 917.10 L 897.20 915.70 L 894.90 914.60 L 892.40 913.90 L 889.70 913.60 L 887.00 913.90 L 884.60 914.60 L 882.30 915.70 L 880.20 917.10 L 878.40 918.90 L 877.00 921.00 L 875.90 923.30 L 875.20 925.70 L 875.00 928.40 L 875.20 931.10 L 875.90 933.60 L 877.00 935.90 L 878.40 938.00 L 880.20 939.70 L 882.30 941.20 L 884.60 942.30 L 887.00 943.00 L 889.70 943.20 Z" fill="#315bf4" fill-rule="nonzero" node-id="98" stroke="none" target-height="29.600037" target-width="29.5" target-x="875" target-y="913.6"></path><path d="M 961.40 943.20 L 964.10 943.00 L 966.60 942.30 L 968.90 941.20 L 971.00 939.70 L 972.70 938.00 L 974.20 935.90 L 975.30 933.60 L 976.00 931.10 L 976.20 928.40 L 976.00 925.70 L 975.30 923.30 L 974.20 921.00 L 972.70 918.90 L 971.00 917.10 L 968.90 915.70 L 966.60 914.60 L 964.10 913.90 L 961.40 913.60 L 958.70 913.90 L 956.20 914.60 L 954.00 915.70 L 951.90 917.10 L 950.10 918.90 L 948.70 921.00 L 947.60 923.30 L 946.90 925.70 L 946.60 928.40 L 946.90 931.10 L 947.60 933.60 L 948.70 935.90 L 950.10 938.00 L 951.90 939.70 L 954.00 941.20 L 956.20 942.30 L 958.70 943.00 L 961.40 943.20 Z" fill="#ff3f08" fill-rule="nonzero" node-id="100" stroke="none" target-height="29.600037" target-width="29.600037" target-x="946.6" target-y="913.6"></path><path d="M 1632.70 431.20 L 1625.60 431.50 L 1618.70 432.30 L 1618.10 425.40 L 1616.80 419.30 L 1615.00 413.40 L 1612.60 407.70 L 1609.70 402.20 L 1606.20 397.00 L 1602.30 392.00 L 1597.80 387.30 L 1592.90 382.90 L 1587.70 378.80 L 1582.00 375.10 L 1575.90 371.60 L 1569.50 368.60 L 1562.90 366.00 L 1555.90 363.80 L 1548.50 361.90 L 1541.10 360.60 L 1533.50 359.70 L 1525.60 359.30 L 1517.40 359.40 L 1509.30 360.10 L 1501.50 361.20 L 1494.00 362.70 L 1486.70 364.80 L 1479.60 367.20 L 1472.80 370.10 L 1466.40 373.30 L 1460.40 376.90 L 1454.60 380.90 L 1449.30 385.20 L 1444.40 389.70 L 1440.00 394.50 L 1436.00 399.60 L 1432.50 405.00 L 1429.50 410.50 L 1427.10 416.20 L 1425.20 422.10 L 1423.90 428.10 L 1423.30 434.30 L 1423.40 443.10 L 1413.00 438.10 L 1407.50 436.00 L 1396.00 433.00 L 1384.10 431.40 L 1377.90 431.20 L 1370.10 431.50 L 1362.60 432.50 L 1355.40 433.90 L 1348.40 436.00 L 1341.50 438.60 L 1334.90 441.60 L 1328.70 445.20 L 1322.70 449.20 L 1317.10 453.70 L 1311.90 458.50 L 1307.00 463.80 L 1302.60 469.40 L 1298.50 475.40 L 1295.00 481.60 L 1291.90 488.20 L 1289.30 495.00 L 1287.30 502.00 L 1285.80 509.30 L 1284.90 516.80 L 1284.60 524.50 L 1284.90 532.00 L 1285.70 539.30 L 1287.10 546.30 L 1289.00 553.20 L 1291.50 559.90 L 1294.40 566.30 L 1297.80 572.40 L 1301.60 578.20 L 1305.80 583.80 L 1310.40 589.00 L 1315.40 593.80 L 1320.70 598.30 L 1326.40 602.30 L 1332.30 606.00 L 1338.50 609.10 L 1345.10 611.90 L 1351.80 614.10 L 1358.70 615.80 L 1365.90 617.00 L 1373.30 617.80 L 1632.70 617.80 L 1640.50 617.50 L 1647.90 616.60 L 1655.20 615.10 L 1662.20 613.10 L 1669.10 610.50 L 1675.60 607.40 L 1681.90 603.80 L 1687.80 599.80 L 1693.40 595.30 L 1698.70 590.50 L 1703.50 585.30 L 1708.00 579.60 L 1712.00 573.70 L 1715.60 567.40 L 1718.70 560.90 L 1721.30 554.00 L 1723.30 547.00 L 1724.80 539.70 L 1725.70 532.30 L 1726.00 524.50 L 1725.70 516.80 L 1724.80 509.30 L 1723.30 502.10 L 1721.30 495.00 L 1718.70 488.20 L 1715.60 481.60 L 1712.00 475.40 L 1708.00 469.40 L 1703.50 463.80 L 1698.70 458.50 L 1693.40 453.70 L 1687.80 449.20 L 1681.90 445.20 L 1675.60 441.60 L 1669.10 438.60 L 1662.20 436.00 L 1655.20 433.90 L 1647.90 432.50 L 1640.50 431.50 L 1632.70 431.20 Z" fill="#d2e9fe" fill-rule="nonzero" node-id="102" stroke="none" target-height="258.5" target-width="441.40002" target-x="1284.6" target-y="359.3"></path><path d="M 1530.30 436.90 L 1475.70 590.50" fill="none" node-id="104" stroke="#315bf4" stroke-linecap="round" stroke-width="14" target-height="153.6" target-width="54.600098" target-x="1475.7" target-y="436.9"></path><path d="M 1463.20 477.90 L 1533.70 427.80" fill="none" node-id="106" stroke="#315bf4" stroke-linecap="round" stroke-width="14" target-height="50.100006" target-width="70.5" target-x="1463.2" target-y="427.8"></path><path d="M 1554.20 505.20 L 1533.70 427.80" fill="none" node-id="108" stroke="#315bf4" stroke-linecap="round" stroke-width="14" target-height="77.400024" target-width="20.5" target-x="1533.7" target-y="427.8"></path><path d="M 1681.60 165.00 L 1602.00 0.00 L 1761.30 0.00 L 1681.60 165.00 Z" fill="#315bf4" fill-rule="nonzero" node-id="110" stroke="none" target-height="165" target-width="159.30005" target-x="1602" target-y="0"></path><path d="M 1602.00 143.40 L 343.60 143.40 L 353.80 127.40 L 1602.00 127.40 L 1602.00 143.40 Z" fill="#ffffff" fill-rule="nonzero" node-id="112" stroke="none" target-height="15.999992" target-width="1258.4" target-x="343.6" target-y="127.4"></path><path d="M 1602.00 127.40 L 353.80 127.40 L 343.60 143.40 L 1602.00 143.40 L 1602.00 127.40 Z" fill="#000000" fill-rule="nonzero" node-id="114" stroke="none" target-height="15.999992" target-width="1258.4" target-x="343.6" target-y="127.4"></path></svg>